<?xml version="1.0" ?><svg id="Layer_1" style="enable-background:new 0 0 100 100;" version="1.1" viewBox="0 0 100 100" xml:space="preserve" xmlns="http://www.w3.org/2000/svg" xmlns:xlink="http://www.w3.org/1999/xlink"><path d="M95.8,23.2c-0.3-0.3-0.8-0.4-1.2-0.3c-2.1,0.9-4.2,1.7-6.4,2.2c2.4-2.3,4.2-5.2,5.2-8.5c0.1-0.4,0-0.8-0.3-1.1  c-0.3-0.3-0.8-0.3-1.1-0.1c-3.4,2.1-7,3.5-10.9,4.4c-3.6-3.8-8.6-5.9-13.8-5.9c0,0,0,0,0,0c-6,0-11.5,2.8-15.3,7.6  c-3.4,4.4-4.9,10.1-4,15.6C34.1,36.1,21,29.1,12,17.8c-0.2-0.3-0.5-0.4-0.9-0.4c-0.3,0-0.6,0.2-0.8,0.5C8.7,21,7.8,24.5,7.8,28  c0,5.5,2.2,10.6,5.9,14.3c-1.6-0.4-3.1-1-4.6-1.8c-0.3-0.2-0.7-0.2-1,0c-0.3,0.2-0.5,0.5-0.5,0.9v0.2c0,8,4.7,15.1,11.6,18.2  c-1.3,0-2.6-0.1-3.9-0.3c-0.3-0.1-0.7,0.1-0.9,0.3c-0.2,0.3-0.3,0.6-0.2,1c2.3,7.2,8.3,12.4,15.5,13.6c-5.9,4.1-13,6.3-20.2,6.3  c-1.4,0-2.9-0.1-4.4-0.3c-0.5-0.1-0.9,0.2-1.1,0.7c-0.2,0.4,0,0.9,0.4,1.2C13.1,88,23,91,33.2,91c0,0,0,0,0.1,0  c33.5,0,53.5-27.9,53.5-54.9c0-0.7,0-1.3,0-2c3.5-2.7,6.6-6,9-9.7C96.1,24,96.1,23.6,95.8,23.2z"/></svg>